<svg xmlns="http://www.w3.org/2000/svg" version="1.1" xmlns:xlink="http://www.w3.org/1999/xlink" width="1000" height="1000"><style>
    #light-icon {
      display: inline;
    }
    #dark-icon {
      display: none;
    }

    @media (prefers-color-scheme: dark) {
      #light-icon {
        display: none;
      }
      #dark-icon {
        display: inline;
      }
    }
  </style><g id="light-icon"><svg xmlns="http://www.w3.org/2000/svg" version="1.1" xmlns:xlink="http://www.w3.org/1999/xlink" width="1000" height="1000"><g><g transform="matrix(2.5,0,0,2.5,0,0)"><svg xmlns="http://www.w3.org/2000/svg" version="1.1" xmlns:xlink="http://www.w3.org/1999/xlink" width="400" height="400"><svg id="Layer_1" data-name="Layer 1" xmlns="http://www.w3.org/2000/svg" viewBox="0 0 400 400">
  <defs>
    <style>
      .cls-1 {
        fill: #111;
      }

      .cls-2 {
        fill: #fccde2;
      }
    </style>
  </defs>
  <rect class="cls-1" width="400" height="400"></rect>
  <g>
    <rect class="cls-2" x="202.96" y="138.68" width="18.03" height="18.03"></rect>
    <rect class="cls-2" x="176" y="165.81" width="18.03" height="18.03"></rect>
    <rect class="cls-2" x="202.96" y="165.81" width="18.03" height="18.03"></rect>
    <rect class="cls-2" x="176" y="138.68" width="18.03" height="18.03"></rect>
    <path class="cls-2" d="M310.64,194.66l-108.19-102.52q-.17-.17-.34-.34c-.17-.17-.34-.34-.52-.52-.17-.17-.34-.17-.52-.34-.17-.17-.34-.17-.69-.34-.17,0-.34-.17-.69-.17-.17,0-.34-.17-.69-.17h-2.75c-.17,0-.34.17-.69.17-.17,0-.52.17-.69.17s-.34.17-.69.34c-.17.17-.34.17-.52.34-.17.17-.34.34-.52.34.17.34,0,.34-.17.52l-105.27,99.77c-2.75,2.58-2.92,7.04-.34,9.79,1.37,1.37,3.09,2.23,4.98,2.23,1.72,0,3.43-.69,4.81-1.89l12.88-12.19v113.34c0,2.06.86,3.95,2.4,5.32,1.2,1.03,2.75,1.55,4.46,1.55.34,0,.86,0,1.2-.17,17.34-3.09,33.66-7.04,48.6-11.51,3.61-1.03,5.67-4.98,4.64-8.59s-4.98-5.67-8.59-4.64c-12.02,3.61-25.07,6.87-38.98,9.62v-117.98l74.01-70.24,76.93,72.81v115.4c-21.98-4.46-41.73-9.96-58.73-16.31,45.51-24.9,43.62-51,37.78-65.08-3.43-8.41-11.33-14.08-21.29-15.28-11.51-1.37-23.7,3.61-33.14,13.05-9.44-9.44-21.64-14.42-33.14-13.05-9.96,1.2-17.86,6.87-21.29,15.28-4.46,11.16-3.78,22.67,2.06,33.31,14.94,27.3,63.71,50.49,133.6,63.2.34,0,.86.17,1.2.17,1.55,0,3.09-.52,4.46-1.55,1.55-1.37,2.4-3.26,2.4-5.32v-110.76l12.88,12.19c1.37,1.2,3.09,1.89,4.81,1.89,1.89,0,3.61-.69,4.98-2.23,2.23-2.75,2.06-7.04-.69-9.62ZM158.66,240.17c-3.95-7.21-4.29-14.25-1.37-21.47,1.55-3.78,5.32-6.18,10.3-6.7,7.04-.86,17.69,2.4,25.93,13.91,0,.17.17.17.34.34.17.17.34.34.52.52.17.17.34.34.52.52.17,0,.17.17.34.17,0,0,.17,0,.17.17.17.17.34.34.69.34.17.17.34.17.52.34.17,0,.34.17.69.17.17,0,.52.17.69.17h2.75c.17,0,.34-.17.69-.17.17,0,.52-.17.69-.17s.34-.17.52-.34c.17-.17.52-.17.69-.34,0,0,.17,0,.17-.17.17,0,.17-.17.34-.17l.52-.52.52-.52c0-.17.17-.17.34-.34,8.41-11.51,18.89-14.77,25.93-13.91,4.98.52,8.76,3.09,10.3,6.7,9.79,24.04-20.95,43.1-41.73,52.89-20.61-9.62-34.86-20.26-41.04-31.43Z"></path>
  </g>
</svg></svg></g></g></svg></g><g id="dark-icon"><svg xmlns="http://www.w3.org/2000/svg" version="1.1" xmlns:xlink="http://www.w3.org/1999/xlink" width="1000" height="1000"><g><g transform="matrix(2.5,0,0,2.5,0,0)"><svg xmlns="http://www.w3.org/2000/svg" version="1.1" xmlns:xlink="http://www.w3.org/1999/xlink" width="400" height="400"><svg id="Layer_1" xmlns="http://www.w3.org/2000/svg" version="1.1" viewBox="0 0 400 400">
  <!-- Generator: Adobe Illustrator 29.1.0, SVG Export Plug-In . SVG Version: 2.1.0 Build 142)  -->
  <defs>
    <style>
      .st0 {
        fill: #fccde2;
      }
    </style>
  </defs>
  <rect class="st0" x="203" y="138.7" width="18" height="18"></rect>
  <rect class="st0" x="176" y="165.8" width="18" height="18"></rect>
  <rect class="st0" x="203" y="165.8" width="18" height="18"></rect>
  <rect class="st0" x="176" y="138.7" width="18" height="18"></rect>
  <path class="st0" d="M310.6,194.7l-108.2-102.5c-.1-.1-.2-.2-.3-.3-.2-.2-.3-.3-.5-.5-.2-.2-.3-.2-.5-.3-.2-.2-.3-.2-.7-.3-.2,0-.3-.2-.7-.2s-.3-.2-.7-.2h-2.8c-.2,0-.3.2-.7.2s-.5.2-.7.2-.3.2-.7.3c-.2.2-.3.2-.5.3-.2.2-.3.3-.5.3.2.3,0,.3-.2.5l-105.3,99.8c-2.8,2.6-2.9,7-.3,9.8,1.4,1.4,3.1,2.2,5,2.2s3.4-.7,4.8-1.9l12.9-12.2v113.3c0,2.1.9,4,2.4,5.3,1.2,1,2.8,1.5,4.5,1.5s.9,0,1.2-.2c17.3-3.1,33.7-7,48.6-11.5,3.6-1,5.7-5,4.6-8.6s-5-5.7-8.6-4.6c-12,3.6-25.1,6.9-39,9.6v-118l74-70.2,76.9,72.8v115.4c-22-4.5-41.7-10-58.7-16.3,45.5-24.9,43.6-51,37.8-65.1-3.4-8.4-11.3-14.1-21.3-15.3-11.5-1.4-23.7,3.6-33.1,13.1-9.4-9.4-21.6-14.4-33.1-13.1-10,1.2-17.9,6.9-21.3,15.3-4.5,11.2-3.8,22.7,2.1,33.3,14.9,27.3,63.7,50.5,133.6,63.2.3,0,.9.2,1.2.2,1.5,0,3.1-.5,4.5-1.5,1.5-1.4,2.4-3.3,2.4-5.3v-110.8l12.9,12.2c1.4,1.2,3.1,1.9,4.8,1.9s3.6-.7,5-2.2c2.2-2.8,2.1-7-.7-9.6h0ZM158.7,240.2c-3.9-7.2-4.3-14.2-1.4-21.5,1.6-3.8,5.3-6.2,10.3-6.7,7-.9,17.7,2.4,25.9,13.9,0,.2.2.2.3.3l.5.5.5.5c.2,0,.2.2.3.2,0,0,.2,0,.2.2.2.2.3.3.7.3.2.2.3.2.5.3.2,0,.3.2.7.2s.5.2.7.2h2.8c.2,0,.3-.2.7-.2s.5-.2.7-.2.3-.2.5-.3c.2-.2.5-.2.7-.3,0,0,.2,0,.2-.2.2,0,.2-.2.3-.2l.5-.5.5-.5c0-.2.2-.2.3-.3,8.4-11.5,18.9-14.8,25.9-13.9,5,.5,8.8,3.1,10.3,6.7,9.8,24-20.9,43.1-41.7,52.9-20.6-9.6-34.9-20.3-41-31.4h0Z"></path>
</svg></svg></g></g></svg></g></svg>