<?xml version="1.0" encoding="UTF-8"?>
<svg id="Layer_1" data-name="Layer 1" xmlns="http://www.w3.org/2000/svg" viewBox="0 0 400 400">
  <defs>
    <style>
      .cls-1 {
        fill: #111;
      }

      .cls-2 {
        fill: #fccde2;
      }
    </style>
  </defs>
  <rect class="cls-1" width="400" height="400"/>
  <g>
    <rect class="cls-2" x="202.96" y="138.68" width="18.03" height="18.03"/>
    <rect class="cls-2" x="176" y="165.81" width="18.03" height="18.03"/>
    <rect class="cls-2" x="202.96" y="165.81" width="18.03" height="18.03"/>
    <rect class="cls-2" x="176" y="138.68" width="18.03" height="18.03"/>
    <path class="cls-2" d="M310.64,194.66l-108.19-102.52q-.17-.17-.34-.34c-.17-.17-.34-.34-.52-.52-.17-.17-.34-.17-.52-.34-.17-.17-.34-.17-.69-.34-.17,0-.34-.17-.69-.17-.17,0-.34-.17-.69-.17h-2.75c-.17,0-.34.17-.69.17-.17,0-.52.17-.69.17s-.34.17-.69.34c-.17.17-.34.17-.52.34-.17.17-.34.34-.52.34.17.34,0,.34-.17.52l-105.27,99.77c-2.75,2.58-2.92,7.04-.34,9.79,1.37,1.37,3.09,2.23,4.98,2.23,1.72,0,3.43-.69,4.81-1.89l12.88-12.19v113.34c0,2.06.86,3.95,2.4,5.32,1.2,1.03,2.75,1.55,4.46,1.55.34,0,.86,0,1.2-.17,17.34-3.09,33.66-7.04,48.6-11.51,3.61-1.03,5.67-4.98,4.64-8.59s-4.98-5.67-8.59-4.64c-12.02,3.61-25.07,6.87-38.98,9.62v-117.98l74.01-70.24,76.93,72.81v115.4c-21.98-4.46-41.73-9.96-58.73-16.31,45.51-24.9,43.62-51,37.78-65.08-3.43-8.41-11.33-14.08-21.29-15.28-11.51-1.37-23.7,3.61-33.14,13.05-9.44-9.44-21.64-14.42-33.14-13.05-9.96,1.2-17.86,6.87-21.29,15.28-4.46,11.16-3.78,22.67,2.06,33.31,14.94,27.3,63.71,50.49,133.6,63.2.34,0,.86.17,1.2.17,1.55,0,3.09-.52,4.46-1.55,1.55-1.37,2.4-3.26,2.4-5.32v-110.76l12.88,12.19c1.37,1.2,3.09,1.89,4.81,1.89,1.89,0,3.61-.69,4.98-2.23,2.23-2.75,2.06-7.04-.69-9.62ZM158.66,240.17c-3.95-7.21-4.29-14.25-1.37-21.47,1.55-3.78,5.32-6.18,10.3-6.7,7.04-.86,17.69,2.4,25.93,13.91,0,.17.17.17.34.34.17.17.34.34.52.52.17.17.34.34.52.52.17,0,.17.17.34.17,0,0,.17,0,.17.17.17.17.34.34.69.34.17.17.34.17.52.34.17,0,.34.17.69.17.17,0,.52.17.69.17h2.75c.17,0,.34-.17.69-.17.17,0,.52-.17.69-.17s.34-.17.52-.34c.17-.17.52-.17.69-.34,0,0,.17,0,.17-.17.17,0,.17-.17.34-.17l.52-.52.52-.52c0-.17.17-.17.34-.34,8.41-11.51,18.89-14.77,25.93-13.91,4.98.52,8.76,3.09,10.3,6.7,9.79,24.04-20.95,43.1-41.73,52.89-20.61-9.62-34.86-20.26-41.04-31.43Z"/>
  </g>
</svg>